<svg width="28" height="28" viewBox="0 0 28 28" fill="none" xmlns="http://www.w3.org/2000/svg">
<path d="M25.4704 19.1862L23.333 15.9802V11.6667C23.333 9.19134 22.3497 6.81737 20.5993 5.06703C18.849 3.31669 16.475 2.33336 13.9997 2.33336C11.5243 2.33336 9.15036 3.31669 7.40002 5.06703C5.64968 6.81737 4.66635 9.19134 4.66635 11.6667V15.9802L2.52902 19.1862C2.41226 19.362 2.34532 19.5661 2.3353 19.7769C2.32529 19.9877 2.37258 20.1972 2.47214 20.3833C2.57171 20.5693 2.71983 20.7249 2.90076 20.8335C3.08169 20.9421 3.28867 20.9997 3.49968 21H24.4997C24.7107 20.9997 24.9177 20.9421 25.0986 20.8335C25.2795 20.7249 25.4277 20.5693 25.5272 20.3833C25.6268 20.1972 25.6741 19.9877 25.6641 19.7769C25.6541 19.5661 25.5871 19.362 25.4704 19.1862Z" fill="#A5A5A5"/>
<path d="M14.0004 25.6666C15.0348 25.6676 16.04 25.324 16.8576 24.6903C17.6751 24.0565 18.2584 23.1686 18.5154 22.1666H9.48535C9.74232 23.1686 10.3256 24.0565 11.1431 24.6903C11.9607 25.324 12.9659 25.6676 14.0004 25.6666Z" fill="#A5A5A5"/>
</svg>
