<svg width="28" height="28" viewBox="0 0 28 28" fill="none" xmlns="http://www.w3.org/2000/svg">
<path d="M13.3463 6.00833L12.7747 4.29333C12.6944 4.06289 12.5448 3.86294 12.3463 3.7209C12.1479 3.57886 11.9104 3.5017 11.6663 3.5H5.83301C4.90558 3.50271 4.01692 3.87233 3.36113 4.52812C2.70533 5.18391 2.33572 6.07258 2.33301 7V9.33333H10.0213L13.3463 6.00833Z" fill="#A5A5A5"/>
<path d="M22.1663 7H15.6563L11.328 11.3283C11.1056 11.5433 10.809 11.6644 10.4997 11.6667H2.33301V21C2.33572 21.9274 2.70533 22.8161 3.36113 23.4719C4.01692 24.1277 4.90558 24.4973 5.83301 24.5H22.1663C23.0938 24.4973 23.9824 24.1277 24.6382 23.4719C25.294 22.8161 25.6636 21.9274 25.6663 21V10.5C25.6636 9.57258 25.294 8.68391 24.6382 8.02812C23.9824 7.37233 23.0938 7.00271 22.1663 7Z" fill="#A5A5A5"/>
</svg>
