<svg width="28" height="28" viewBox="0 0 28 28" fill="none" xmlns="http://www.w3.org/2000/svg">
<path d="M2.33301 23.3333C2.33578 24.2607 2.70542 25.1493 3.36119 25.8051C4.01697 26.4609 4.9056 26.8305 5.83301 26.8333H12.833V15.1666H2.33301V23.3333Z" fill="#A5A5A5"/>
<path d="M15.167 26.8333H22.167C23.0944 26.8305 23.983 26.4609 24.6388 25.8051C25.2946 25.1493 25.6642 24.2607 25.667 23.3333V15.1666H15.167V26.8333Z" fill="#A5A5A5"/>
<path d="M23.3336 5.83329H19.6236C19.7649 5.46066 19.8361 5.06513 19.8336 4.66663C19.8309 3.73922 19.4612 2.85059 18.8055 2.19481C18.1497 1.53903 17.2611 1.1694 16.3337 1.16663C15.4697 1.16888 14.6377 1.49337 14.0003 2.07663C13.363 1.49337 12.5309 1.16888 11.667 1.16663C10.7396 1.1694 9.85095 1.53903 9.19517 2.19481C8.5394 2.85059 8.16976 3.73922 8.16699 4.66663C8.16451 5.06513 8.2357 5.46066 8.37699 5.83329H4.66699C3.73958 5.83606 2.85096 6.2057 2.19518 6.86148C1.5394 7.51726 1.16976 8.40589 1.16699 9.33329V11.6666C1.16699 11.976 1.28991 12.2728 1.5087 12.4916C1.72749 12.7104 2.02424 12.8333 2.33366 12.8333H12.8337V5.83329H11.667C11.4362 5.83329 11.2107 5.76487 11.0188 5.63667C10.827 5.50848 10.6774 5.32627 10.5891 5.11309C10.5008 4.89991 10.4777 4.66533 10.5227 4.43902C10.5678 4.21271 10.6789 4.00483 10.842 3.84167C11.0052 3.67851 11.2131 3.56739 11.4394 3.52238C11.6657 3.47736 11.9003 3.50046 12.1135 3.58877C12.3266 3.67707 12.5088 3.8266 12.637 4.01846C12.7652 4.21032 12.8337 4.43588 12.8337 4.66663V5.83329H15.167V4.66663C15.167 4.43588 15.2354 4.21032 15.3636 4.01846C15.4918 3.8266 15.674 3.67707 15.8872 3.58877C16.1004 3.50046 16.3349 3.47736 16.5613 3.52238C16.7876 3.56739 16.9954 3.67851 17.1586 3.84167C17.3218 4.00483 17.4329 4.21271 17.4779 4.43902C17.5229 4.66533 17.4998 4.89991 17.4115 5.11309C17.3232 5.32627 17.1737 5.50848 16.9818 5.63667C16.79 5.76487 16.5644 5.83329 16.3337 5.83329H15.167V12.8333H25.667C25.9764 12.8333 26.2731 12.7104 26.4919 12.4916C26.7107 12.2728 26.8336 11.976 26.8336 11.6666V9.33329C26.8309 8.40589 26.4612 7.51726 25.8055 6.86148C25.1497 6.2057 24.2611 5.83606 23.3336 5.83329Z" fill="#A5A5A5"/>
</svg>
