<svg width="81" height="23" viewBox="0 0 81 23" fill="none" xmlns="http://www.w3.org/2000/svg">
<path d="M0.589966 22V0.999975H6.31997V9.27998H9.28997C10.05 9.27998 10.69 9.02998 11.21 8.52997C11.75 8.02997 12.02 7.32997 12.02 6.42997V0.999975H17.75V6.51998C17.75 7.79998 17.44 8.96998 16.82 10.03C16.22 11.07 15.41 11.91 14.39 12.55L16.43 16.87C16.61 17.25 16.93 17.44 17.39 17.44H19.13V22H15.95C14.77 22 13.82 21.78 13.1 21.34C12.38 20.9 11.83 20.31 11.45 19.57L8.74997 13.9H6.31997V22H0.589966Z" fill="white"/>
<path d="M20.7441 22V0.0999756H25.9341V22H20.7441Z" fill="white"/>
<path d="M37.3465 22C35.6065 22 34.0665 21.69 32.7265 21.07C31.3865 20.45 30.3365 19.56 29.5765 18.4C28.8165 17.24 28.4365 15.87 28.4365 14.29C28.4365 12.55 28.8065 11.08 29.5465 9.87998C30.2865 8.65997 31.2565 7.73998 32.4565 7.11998C33.6765 6.49998 34.9965 6.18998 36.4165 6.18998C37.9165 6.18998 39.2265 6.50998 40.3465 7.14998C41.4665 7.76998 42.3265 8.64998 42.9265 9.78998C43.5465 10.93 43.8565 12.26 43.8565 13.78C43.8565 14.1 43.8365 14.47 43.7965 14.89C43.7565 15.29 43.7065 15.63 43.6465 15.91H33.8365C33.9965 16.57 34.3565 17.06 34.9165 17.38C35.4765 17.7 36.1865 17.86 37.0465 17.86H42.1465V22H37.3465ZM33.6565 12.88H38.9365C38.9165 12.16 38.6865 11.55 38.2465 11.05C37.8065 10.55 37.1765 10.3 36.3565 10.3C35.5165 10.3 34.8765 10.56 34.4365 11.08C33.9965 11.58 33.7365 12.18 33.6565 12.88Z" fill="white"/>
<path d="M54.181 22.36C52.621 22.36 51.201 22.02 49.921 21.34C48.661 20.64 47.651 19.68 46.891 18.46C46.131 17.24 45.751 15.84 45.751 14.26C45.751 12.7 46.131 11.31 46.891 10.09C47.651 8.86997 48.671 7.91998 49.951 7.23998C51.231 6.53998 52.651 6.18998 54.211 6.18998C55.771 6.18998 57.181 6.53998 58.441 7.23998C59.721 7.91998 60.731 8.86997 61.471 10.09C62.231 11.31 62.611 12.7 62.611 14.26C62.611 15.84 62.231 17.24 61.471 18.46C60.731 19.68 59.721 20.64 58.441 21.34C57.181 22.02 55.761 22.36 54.181 22.36ZM54.181 17.74C55.141 17.74 55.911 17.41 56.491 16.75C57.091 16.09 57.391 15.26 57.391 14.26C57.391 13.26 57.091 12.43 56.491 11.77C55.911 11.11 55.141 10.78 54.181 10.78C53.221 10.78 52.441 11.11 51.841 11.77C51.261 12.43 50.971 13.26 50.971 14.26C50.971 15.26 51.261 16.09 51.841 16.75C52.441 17.41 53.221 17.74 54.181 17.74Z" fill="white"/>
<path d="M65.0703 22V13.12C65.0703 11.8 65.3903 10.62 66.0303 9.57998C66.6903 8.51998 67.6103 7.68998 68.7903 7.08998C69.9903 6.48998 71.3903 6.18998 72.9903 6.18998C74.5903 6.18998 75.9703 6.48998 77.1303 7.08998C78.2903 7.68998 79.1803 8.51998 79.8003 9.57998C80.4203 10.62 80.7303 11.8 80.7303 13.12V22H75.5103V13.36C75.5103 12.68 75.2703 12.08 74.7903 11.56C74.3103 11.04 73.6803 10.78 72.9003 10.78C72.1203 10.78 71.4803 11.04 70.9803 11.56C70.5003 12.08 70.2603 12.68 70.2603 13.36V22H65.0703Z" fill="white"/>
</svg>
