<svg width="81" height="23" viewBox="0 0 81 23" fill="none" xmlns="http://www.w3.org/2000/svg">
<path d="M0.589844 22.0001V1.0001H6.31984V9.2801H9.28984C10.0498 9.2801 10.6898 9.0301 11.2098 8.5301C11.7498 8.0301 12.0198 7.3301 12.0198 6.4301V1.0001H17.7498V6.5201C17.7498 7.8001 17.4398 8.9701 16.8198 10.0301C16.2198 11.0701 15.4098 11.9101 14.3898 12.5501L16.4298 16.8701C16.6098 17.2501 16.9298 17.4401 17.3898 17.4401H19.1298V22.0001H15.9498C14.7698 22.0001 13.8198 21.7801 13.0998 21.3401C12.3798 20.9001 11.8298 20.3101 11.4498 19.5701L8.74984 13.9001H6.31984V22.0001H0.589844Z" fill="#202020"/>
<path d="M20.744 22.0001V0.100098H25.934V22.0001H20.744Z" fill="#202020"/>
<path d="M37.3464 22.0001C35.6064 22.0001 34.0664 21.6901 32.7264 21.0701C31.3864 20.4501 30.3364 19.5601 29.5764 18.4001C28.8164 17.2401 28.4364 15.8701 28.4364 14.2901C28.4364 12.5501 28.8064 11.0801 29.5464 9.8801C30.2864 8.6601 31.2564 7.7401 32.4564 7.1201C33.6764 6.5001 34.9964 6.1901 36.4164 6.1901C37.9164 6.1901 39.2264 6.5101 40.3464 7.1501C41.4664 7.7701 42.3264 8.6501 42.9264 9.7901C43.5464 10.9301 43.8564 12.2601 43.8564 13.7801C43.8564 14.1001 43.8364 14.4701 43.7964 14.8901C43.7564 15.2901 43.7064 15.6301 43.6464 15.9101H33.8364C33.9964 16.5701 34.3564 17.0601 34.9164 17.3801C35.4764 17.7001 36.1864 17.8601 37.0464 17.8601H42.1464V22.0001H37.3464ZM33.6564 12.8801H38.9364C38.9164 12.1601 38.6864 11.5501 38.2464 11.0501C37.8064 10.5501 37.1764 10.3001 36.3564 10.3001C35.5164 10.3001 34.8764 10.5601 34.4364 11.0801C33.9964 11.5801 33.7364 12.1801 33.6564 12.8801Z" fill="#202020"/>
<path d="M54.1809 22.3601C52.6209 22.3601 51.2009 22.0201 49.9209 21.3401C48.6609 20.6401 47.6509 19.6801 46.8909 18.4601C46.1309 17.2401 45.7509 15.8401 45.7509 14.2601C45.7509 12.7001 46.1309 11.3101 46.8909 10.0901C47.6509 8.8701 48.6709 7.9201 49.9509 7.2401C51.2309 6.5401 52.6509 6.1901 54.2109 6.1901C55.7709 6.1901 57.1809 6.5401 58.4409 7.2401C59.7209 7.9201 60.7309 8.8701 61.4709 10.0901C62.2309 11.3101 62.6109 12.7001 62.6109 14.2601C62.6109 15.8401 62.2309 17.2401 61.4709 18.4601C60.7309 19.6801 59.7209 20.6401 58.4409 21.3401C57.1809 22.0201 55.7609 22.3601 54.1809 22.3601ZM54.1809 17.7401C55.1409 17.7401 55.9109 17.4101 56.4909 16.7501C57.0909 16.0901 57.3909 15.2601 57.3909 14.2601C57.3909 13.2601 57.0909 12.4301 56.4909 11.7701C55.9109 11.1101 55.1409 10.7801 54.1809 10.7801C53.2209 10.7801 52.4409 11.1101 51.8409 11.7701C51.2609 12.4301 50.9709 13.2601 50.9709 14.2601C50.9709 15.2601 51.2609 16.0901 51.8409 16.7501C52.4409 17.4101 53.2209 17.7401 54.1809 17.7401Z" fill="#202020"/>
<path d="M65.0702 22.0001V13.1201C65.0702 11.8001 65.3902 10.6201 66.0302 9.5801C66.6902 8.5201 67.6102 7.6901 68.7902 7.0901C69.9902 6.4901 71.3902 6.1901 72.9902 6.1901C74.5902 6.1901 75.9702 6.4901 77.1302 7.0901C78.2902 7.6901 79.1802 8.5201 79.8002 9.5801C80.4202 10.6201 80.7302 11.8001 80.7302 13.1201V22.0001H75.5102V13.3601C75.5102 12.6801 75.2702 12.0801 74.7902 11.5601C74.3102 11.0401 73.6802 10.7801 72.9002 10.7801C72.1202 10.7801 71.4802 11.0401 70.9802 11.5601C70.5002 12.0801 70.2602 12.6801 70.2602 13.3601V22.0001H65.0702Z" fill="#202020"/>
</svg>
