<svg width="54" height="54" viewBox="0 0 54 54" fill="none" xmlns="http://www.w3.org/2000/svg">
<rect width="54" height="54" rx="14" fill="url(#paint0_linear_874_31470)"/>
<path d="M16 22C16 18.6863 18.6863 16 22 16H23.9939C24.5462 16 24.9939 16.4477 24.9939 17V32.9662C24.9939 36.2799 22.3076 38.9662 18.9939 38.9662H17C16.4477 38.9662 16 38.5185 16 37.9662V22ZM27.769 22.2528C27.769 19.7629 28.3931 18.0899 29.6413 17.2337C30.8227 16.4337 33.0461 16.0338 36.3116 16.0338H38V19.2278C38 21.7739 37.3592 23.5878 36.0775 24.6694C34.7736 25.7509 32.5279 26.2917 29.3404 26.2917H27.769V22.2528ZM27.769 28.0492H29.3404C32.4833 28.0492 34.729 28.6801 36.0775 29.942C37.3592 31.1474 38 33.0514 38 35.6539V39H36.3116C33.113 39 30.8896 38.5156 29.6413 37.5467C28.3931 36.5665 27.769 34.809 27.769 32.2741V28.0492Z" fill="white"/>
<path d="M27.769 22.2526C27.769 19.7628 28.3932 18.0898 29.6414 17.2335C30.8227 16.4336 33.0461 16.0337 36.3116 16.0337H38V19.2277C38 21.7738 37.3592 23.5877 36.0776 24.6693C34.7736 25.7508 32.5279 26.2916 29.3405 26.2916H27.769V22.2526Z" fill="#5ECFFF"/>
<defs>
<linearGradient id="paint0_linear_874_31470" x1="27" y1="0" x2="45.6923" y2="64.9038" gradientUnits="userSpaceOnUse">
<stop stop-color="#924AEF"/>
<stop offset="1" stop-color="#A827E4"/>
</linearGradient>
</defs>
</svg>
