<svg width="24" height="24" viewBox="0 0 24 24" fill="none" xmlns="http://www.w3.org/2000/svg">
<path d="M20.2102 15.3201C19.6264 16.7063 18.6877 17.9143 17.4885 18.8222C16.2893 19.7302 14.872 20.3062 13.3794 20.4921C11.8868 20.6781 10.3716 20.4674 8.9863 19.8814C7.60101 19.2954 6.39458 18.3547 5.48852 17.1541C4.58247 15.9535 4.00877 14.5353 3.82521 13.0424C3.64165 11.5495 3.85471 10.0346 4.44294 8.65025C5.03116 7.2659 5.97377 6.06098 7.17584 5.15684C8.37792 4.25271 9.79701 3.68128 11.2902 3.50011C11.3938 3.48774 11.4987 3.50808 11.5901 3.55829C11.6816 3.6085 11.755 3.68606 11.8002 3.78011C11.8474 3.87242 11.8642 3.97734 11.848 4.07976C11.8318 4.18219 11.7836 4.27685 11.7102 4.35011C11.0972 4.95821 10.6124 5.68302 10.2843 6.4817C9.95628 7.28038 9.79165 8.13672 9.8002 9.00011C9.809 10.135 10.1116 11.2482 10.6786 12.2313C11.2455 13.2144 12.0575 14.0339 13.0353 14.61C14.0131 15.186 15.1235 15.4989 16.2582 15.5182C17.393 15.5375 18.5133 15.2625 19.5102 14.7201C19.6028 14.6723 19.7075 14.6535 19.811 14.666C19.9144 14.6784 20.0117 14.7217 20.0902 14.7901C20.1571 14.8588 20.2038 14.9447 20.2249 15.0382C20.2461 15.1317 20.241 15.2293 20.2102 15.3201Z" fill="#C2C2C2"/>
</svg>
