<svg width="28" height="28" viewBox="0 0 28 28" fill="none" xmlns="http://www.w3.org/2000/svg">
<g clip-path="url(#clip0_881_17448)">
<path d="M15.7544 24.4961C8.99144 24.4961 3.50889 19.0136 3.50889 12.2505C3.50889 5.48747 8.99138 0.0050354 15.7544 0.0050354C22.5175 0.0050354 28 5.48753 28 12.2506C28 19.0137 22.5175 24.4961 15.7544 24.4961ZM15.7544 3.50378C10.9237 3.50378 7.00763 7.41984 7.00763 12.2506C7.00763 17.0813 10.9237 20.9974 15.7544 20.9974C20.5852 20.9974 24.5013 17.0813 24.5013 12.2506C24.5013 7.41984 20.5851 3.50378 15.7544 3.50378Z" fill="#924AEF"/>
<path d="M1.75951 27.9949C1.29451 27.9976 0.847592 27.815 0.51747 27.4875C-0.168521 26.8071 -0.173043 25.6996 0.50734 25.0136C0.510717 25.0102 0.514093 25.0068 0.51747 25.0034L7.09507 18.4259C7.80518 17.7399 8.93694 17.7595 9.62293 18.4696C10.3089 19.1797 10.2893 20.3114 9.57922 20.9974L3.00156 27.4875C2.67143 27.815 2.22452 27.9976 1.75951 27.9949Z" fill="#924AEF"/>
</g>
<defs>
<clipPath id="clip0_881_17448">
<rect width="28" height="28" fill="white"/>
</clipPath>
</defs>
</svg>
