<svg width="28" height="28" viewBox="0 0 28 28" fill="none" xmlns="http://www.w3.org/2000/svg">
<path d="M25.5588 10.3599C25.0482 10.2858 24.5609 10.0974 24.1333 9.80879C23.7056 9.5202 23.3485 9.13885 23.0887 8.69313C22.8288 8.24742 22.6728 7.74882 22.6324 7.23448C22.5919 6.72013 22.668 6.20329 22.855 5.72243C22.9739 5.40806 22.9914 5.06438 22.9051 4.73956C22.8188 4.41475 22.633 4.12508 22.3738 3.91118C21.2293 2.95013 19.9266 2.19517 18.5238 1.67993C18.2043 1.56126 17.8556 1.54644 17.5272 1.63756C17.1989 1.72869 16.9076 1.92111 16.695 2.18743C16.375 2.59663 15.966 2.92758 15.4991 3.15519C15.0321 3.3828 14.5195 3.50109 14 3.50109C13.4806 3.50109 12.9679 3.3828 12.501 3.15519C12.034 2.92758 11.625 2.59663 11.305 2.18743C11.0924 1.92111 10.8012 1.72869 10.4728 1.63756C10.1445 1.54644 9.79571 1.56126 9.47627 1.67993C8.18098 2.15562 6.96991 2.83499 5.88877 3.69243C5.61625 3.90817 5.41995 4.2055 5.32863 4.54087C5.23731 4.87625 5.25575 5.23205 5.38127 5.55618C5.58318 6.04976 5.6666 6.58379 5.62485 7.11543C5.58309 7.64707 5.41731 8.16153 5.14082 8.61753C4.86433 9.07353 4.48481 9.45838 4.03271 9.74122C3.58062 10.0241 3.06853 10.197 2.53752 10.2462C2.19278 10.283 1.86898 10.4296 1.61379 10.6643C1.35861 10.899 1.18552 11.2095 1.12002 11.5499C0.957092 12.3564 0.875019 13.1771 0.875019 13.9999C0.873821 14.6887 0.929427 15.3765 1.04127 16.0562C1.09693 16.4076 1.2668 16.7308 1.5246 16.976C1.78241 17.2211 2.11379 17.3745 2.46752 17.4124C3.01019 17.4634 3.53277 17.6435 3.99151 17.9379C4.45026 18.2322 4.83182 18.6322 5.10427 19.1042C5.37672 19.5763 5.53213 20.1068 5.55749 20.6512C5.58284 21.1957 5.47741 21.7383 5.25002 22.2337C5.10121 22.5559 5.06429 22.9186 5.14514 23.2642C5.22599 23.6097 5.41996 23.9184 5.69627 24.1412C6.83387 25.0848 8.12402 25.8275 9.51127 26.3374C9.68867 26.3989 9.8748 26.4314 10.0625 26.4337C10.3199 26.4331 10.5734 26.3709 10.8018 26.2521C11.0302 26.1333 11.2267 25.9616 11.375 25.7512C11.6869 25.2968 12.1049 24.9254 12.5929 24.6692C13.0808 24.4131 13.6239 24.2799 14.175 24.2812C14.709 24.2819 15.2354 24.4072 15.7124 24.6472C16.1894 24.8872 16.6038 25.2353 16.9225 25.6637C17.1345 25.9487 17.4349 26.1556 17.7767 26.2521C18.1186 26.3486 18.4827 26.3294 18.8125 26.1974C20.081 25.6869 21.2619 24.9813 22.3125 24.1062C22.5764 23.888 22.7644 23.5917 22.8493 23.26C22.9342 22.9282 22.9117 22.5781 22.785 22.2599C22.5792 21.7727 22.4895 21.2443 22.5229 20.7165C22.5563 20.1886 22.712 19.6758 22.9776 19.2184C23.2432 18.761 23.6114 18.3717 24.0533 18.081C24.4952 17.7904 24.9986 17.6064 25.5238 17.5437C25.8643 17.4966 26.181 17.3423 26.428 17.1032C26.675 16.8641 26.8394 16.5525 26.8975 16.2137C27.038 15.4838 27.1142 14.7431 27.125 13.9999C27.1252 13.2161 27.052 12.4339 26.9063 11.6637C26.8472 11.3323 26.6852 11.028 26.4433 10.794C26.2014 10.5599 25.8919 10.408 25.5588 10.3599ZM18.375 13.9999C18.375 14.8652 18.1184 15.7111 17.6377 16.4305C17.157 17.15 16.4737 17.7108 15.6743 18.0419C14.8748 18.373 13.9952 18.4597 13.1465 18.2909C12.2978 18.1221 11.5183 17.7054 10.9064 17.0935C10.2946 16.4817 9.87789 15.7021 9.70908 14.8534C9.54027 14.0048 9.62691 13.1251 9.95805 12.3257C10.2892 11.5263 10.8499 10.843 11.5694 10.3622C12.2889 9.88152 13.1347 9.62493 14 9.62493C15.1603 9.62493 16.2731 10.0859 17.0936 10.9063C17.9141 11.7268 18.375 12.8396 18.375 13.9999Z" fill="#A5A5A5"/>
</svg>
